{
   "accessors" : [
      {
         "bufferView" : 0,
         "byteOffset" : 0,
         "componentType" : 5123,
         "count" : 23244,
         "max" : [ 5133 ],
         "min" : [ 0 ],
         "name" : "buffer-0-group-0-mesh-0-indices",
         "type" : "SCALAR"
      },
      {
         "bufferView" : 2,
         "byteOffset" : 0,
         "componentType" : 5126,
         "count" : 5134,
         "max" : [ 21.48539924621582, 76.9656982421875, 21.48539924621582 ],
         "min" : [ -21.48539924621582, 0, -54.17910003662109 ],
         "name" : "buffer-0-group-0-mesh-0-position",
         "type" : "VEC3"
      },
      {
         "bufferView" : 2,
         "byteOffset" : 61608,
         "componentType" : 5126,
         "count" : 5134,
         "max" : [ 1, 1, 1 ],
         "min" : [ -1, -1, -1 ],
         "name" : "buffer-0-group-0-mesh-0-normal",
         "type" : "VEC3"
      },
      {
         "bufferView" : 0,
         "byteOffset" : 46488,
         "componentType" : 5123,
         "count" : 1872,
         "max" : [ 613 ],
         "min" : [ 0 ],
         "name" : "buffer-0-group-1-mesh-0-indices",
         "type" : "SCALAR"
      },
      {
         "bufferView" : 2,
         "byteOffset" : 123216,
         "componentType" : 5126,
         "count" : 614,
         "max" : [ 9.620269775390625, 75.58200073242188, 9.620269775390625 ],
         "min" : [ -9.620269775390625, 0, -52.6510009765625 ],
         "name" : "buffer-0-group-1-mesh-0-position",
         "type" : "VEC3"
      },
      {
         "bufferView" : 2,
         "byteOffset" : 130584,
         "componentType" : 5126,
         "count" : 614,
         "max" : [ 1, 1, 1 ],
         "min" : [ -1, -1, -1 ],
         "name" : "buffer-0-group-1-mesh-0-normal",
         "type" : "VEC3"
      },
      {
         "bufferView" : 0,
         "byteOffset" : 50232,
         "componentType" : 5123,
         "count" : 11682,
         "max" : [ 2515 ],
         "min" : [ 0 ],
         "name" : "buffer-0-group-2-mesh-0-indices",
         "type" : "SCALAR"
      },
      {
         "bufferView" : 2,
         "byteOffset" : 137952,
         "componentType" : 5126,
         "count" : 2516,
         "max" : [ 23.40810012817383, 60.11940002441406, 23.40810012817383 ],
         "min" : [ -23.40810012817383, 0, -54.57559967041016 ],
         "name" : "buffer-0-group-2-mesh-0-position",
         "type" : "VEC3"
      },
      {
         "bufferView" : 2,
         "byteOffset" : 168144,
         "componentType" : 5126,
         "count" : 2516,
         "max" : [ 1, 1, 1 ],
         "min" : [ -1, -1, -1 ],
         "name" : "buffer-0-group-2-mesh-0-normal",
         "type" : "VEC3"
      },
      {
         "bufferView" : 0,
         "byteOffset" : 73596,
         "componentType" : 5123,
         "count" : 1116,
         "max" : [ 239 ],
         "min" : [ 0 ],
         "name" : "buffer-0-group-3-mesh-0-indices",
         "type" : "SCALAR"
      },
      {
         "bufferView" : 2,
         "byteOffset" : 198336,
         "componentType" : 5126,
         "count" : 240,
         "max" : [ 0.4924190044403076, 74.20279693603516, 6.519569873809814 ],
         "min" : [ -0.5378850102424622, 0, -52.52280044555664 ],
         "name" : "buffer-0-group-3-mesh-0-position",
         "type" : "VEC3"
      },
      {
         "bufferView" : 2,
         "byteOffset" : 201216,
         "componentType" : 5126,
         "count" : 240,
         "max" : [ 1, 1, 1 ],
         "min" : [ -1, -1, -1 ],
         "name" : "buffer-0-group-3-mesh-0-normal",
         "type" : "VEC3"
      }
   ],
   "asset" : {
      "generator" : "Obj2GltfConverter",
      "version" : "2.0"
   },
   "bufferViews" : [
      {
         "buffer" : 0,
         "byteLength" : 75828,
         "byteOffset" : 0,
         "byteStride" : 0,
         "name" : "buffer-0-bufferview-ushort",
         "target" : 34963
      },
      {
         "buffer" : 0,
         "byteLength" : 1,
         "byteOffset" : 0,
         "name" : "buffer-0-bufferview-vec2"
      },
      {
         "buffer" : 0,
         "byteLength" : 204096,
         "byteOffset" : 75828,
         "byteStride" : 12,
         "name" : "buffer-0-bufferview-vec3",
         "target" : 34962
      },
      {
         "buffer" : 0,
         "byteLength" : 1,
         "byteOffset" : 0,
         "name" : "buffer-0-bufferview-vec4"
      }
   ],
   "buffers" : [
      {
         "byteLength" : 279924,
         "name" : "buffer-0",
         "uri" : "crane-for-poly.bin"
      }
   ],
   "materials" : [
      {
         "alphaMode" : "OPAQUE",
         "doubleSided" : true,
         "name" : "material25",
         "pbrMetallicRoughness" : {
            "baseColorFactor" : [ 0.580392, 0.6, 0.690196, 1 ],
            "metallicFactor" : 0,
            "roughnessFactor" : 0.7358395138449315
         }
      },
      {
         "alphaMode" : "OPAQUE",
         "doubleSided" : true,
         "name" : "yello_metal",
         "pbrMetallicRoughness" : {
            "baseColorFactor" : [ 0.890196, 0.886275, 0.305882, 1 ],
            "metallicFactor" : 0,
            "roughnessFactor" : 0.7358395138449315
         }
      },
      {
         "alphaMode" : "OPAQUE",
         "doubleSided" : true,
         "name" : "material29",
         "pbrMetallicRoughness" : {
            "baseColorFactor" : [ 0.239216, 0.254902, 0.32549, 1 ],
            "metallicFactor" : 0,
            "roughnessFactor" : 0.7358395138449315
         }
      },
      {
         "alphaMode" : "OPAQUE",
         "doubleSided" : true,
         "name" : "def_surf_mat",
         "pbrMetallicRoughness" : {
            "baseColorFactor" : [ 0.82, 0.83, 0.87, 1 ],
            "metallicFactor" : 0,
            "roughnessFactor" : 0.7358395138449315
         }
      }
   ],
   "meshes" : [
      {
         "name" : "buffer-0-mesh-0",
         "primitives" : [
            {
               "attributes" : {
                  "NORMAL" : 2,
                  "POSITION" : 1
               },
               "indices" : 0,
               "material" : 0,
               "mode" : 4
            },
            {
               "attributes" : {
                  "NORMAL" : 5,
                  "POSITION" : 4
               },
               "indices" : 3,
               "material" : 1,
               "mode" : 4
            },
            {
               "attributes" : {
                  "NORMAL" : 8,
                  "POSITION" : 7
               },
               "indices" : 6,
               "material" : 2,
               "mode" : 4
            },
            {
               "attributes" : {
                  "NORMAL" : 11,
                  "POSITION" : 10
               },
               "indices" : 9,
               "material" : 3,
               "mode" : 4
            }
         ]
      }
   ],
   "nodes" : [
      {
         "mesh" : 0,
         "name" : "node-0"
      }
   ],
   "scenes" : [
      {
         "name" : "scene-0",
         "nodes" : [ 0 ]
      }
   ]
}
