{
    "asset" : {
        "generator" : "Khronos glTF Blender I/O v1.3.48",
        "version" : "2.0"
    },
    "scene" : 0,
    "scenes" : [
        {
            "name" : "Scene",
            "nodes" : [
                0,
                1,
                2,
                6,
                8,
                9,
                10,
                11,
                12
            ]
        }
    ],
    "nodes" : [
        {
            "name" : "Node_3",
            "translation" : [
                0.4163876473903656,
                -0.22769446671009064,
                0.32975536584854126
            ]
        },
        {
            "name" : "Node_3.001",
            "translation" : [
                0.4163876473903656,
                -0.22769446671009064,
                0.32975536584854126
            ]
        },
        {
            "name" : "Camera.001",
            "rotation" : [
                0.483536034822464,
                0.33687159419059753,
                -0.20870360732078552,
                0.7804827094078064
            ],
            "translation" : [
                7.358891487121582,
                4.958309173583984,
                6.925790786743164
            ]
        },
        {
            "mesh" : 0,
            "name" : "node_MeshObject686712832-PolyPaper21",
            "translation" : [
                0,
                -0.16113680601119995,
                0
            ]
        },
        {
            "children" : [
                3
            ],
            "name" : "Node_3.002",
            "translation" : [
                0.4163876473903656,
                -0.22769446671009064,
                0.32975536584854126
            ]
        },
        {
            "children" : [
                4
            ],
            "name" : "Node_2",
            "translation" : [
                -0.4163876473903656,
                0.22769446671009064,
                -0.32975536584854126
            ]
        },
        {
            "children" : [
                5
            ],
            "name" : "Node_1",
            "translation" : [
                0.4139977693557739,
                0,
                0.30579376220703125
            ]
        },
        {
            "name" : "headLightNode",
            "translation" : [
                -0.8243528008460999,
                0.4121764004230499,
                -0.4121764004230499
            ]
        },
        {
            "children" : [
                7
            ],
            "name" : "Camera.002",
            "rotation" : [
                0.4835855960845947,
                -0.45154598355293274,
                0.32259291410446167,
                0.6768937110900879
            ],
            "translation" : [
                -2.4939167499542236,
                0.9986567497253418,
                0.5343849062919617
            ]
        },
        {
            "name" : "keyLightNode",
            "rotation" : [
                -0.14607979357242584,
                -0.26535341143608093,
                0.26535341143608093,
                0.9153338670730591
            ],
            "scale" : [
                0,
                0.8325963020324707,
                0
            ],
            "translation" : [
                -1.3347959518432617,
                1.9482319355010986,
                -0.9795417785644531
            ]
        },
        {
            "name" : "Light",
            "rotation" : [
                0.16907575726509094,
                0.7558803558349609,
                -0.27217137813568115,
                0.570947527885437
            ],
            "translation" : [
                4.076245307922363,
                5.903861999511719,
                -1.0054539442062378
            ]
        },
        {
            "name" : "Camera.003",
            "rotation" : [
                0.483536034822464,
                0.33687159419059753,
                -0.20870360732078552,
                0.7804827094078064
            ],
            "translation" : [
                7.358891487121582,
                4.958309173583984,
                6.925790786743164
            ]
        },
        {
            "name" : "Camera",
            "rotation" : [
                0.483536034822464,
                0.33687159419059753,
                -0.20870360732078552,
                0.7804827094078064
            ],
            "translation" : [
                7.358891487121582,
                4.958309173583984,
                6.925790786743164
            ]
        }
    ],
    "materials" : [
        {
            "doubleSided" : true,
            "emissiveFactor" : [
                0.799102783203125,
                0.44520121812820435,
                0.011612245813012123
            ],
            "name" : "Material.002",
            "pbrMetallicRoughness" : {
                "baseColorFactor" : [
                    0.8000000715255737,
                    0.4472619593143463,
                    0.011918788775801659,
                    1
                ],
                "metallicFactor" : 0.5733333230018616,
                "roughnessFactor" : 0.24666699767112732
            }
        }
    ],
    "meshes" : [
        {
            "name" : "mesh_m0-PolyPaper21_-96844.002",
            "primitives" : [
                {
                    "attributes" : {
                        "POSITION" : 0,
                        "NORMAL" : 1,
                        "COLOR_0" : 2
                    },
                    "indices" : 3,
                    "material" : 0
                }
            ]
        }
    ],
    "accessors" : [
        {
            "bufferView" : 0,
            "componentType" : 5126,
            "count" : 1652,
            "max" : [
                0.06674371659755707,
                0.5368341207504272,
                0.4449693560600281
            ],
            "min" : [
                -0.9360368251800537,
                0.09861201047897339,
                -0.8914637565612793
            ],
            "type" : "VEC3"
        },
        {
            "bufferView" : 1,
            "componentType" : 5126,
            "count" : 1652,
            "type" : "VEC3"
        },
        {
            "bufferView" : 2,
            "componentType" : 5126,
            "count" : 1652,
            "type" : "VEC4"
        },
        {
            "bufferView" : 3,
            "componentType" : 5123,
            "count" : 1698,
            "type" : "SCALAR"
        }
    ],
    "bufferViews" : [
        {
            "buffer" : 0,
            "byteLength" : 19824,
            "byteOffset" : 0
        },
        {
            "buffer" : 0,
            "byteLength" : 19824,
            "byteOffset" : 19824
        },
        {
            "buffer" : 0,
            "byteLength" : 26432,
            "byteOffset" : 39648
        },
        {
            "buffer" : 0,
            "byteLength" : 3396,
            "byteOffset" : 66080
        }
    ],
    "buffers" : [
        {
            "byteLength" : 69476,
            "uri" : "data:application/octet-stream;base64,"
        }
    ]
}
